<?xml version="1.0" encoding="UTF-8" standalone="no"?>
<!-- Created with Inkscape (http://www.inkscape.org/) -->

<svg
   xmlns:dc="http://purl.org/dc/elements/1.1/"
   xmlns:cc="http://creativecommons.org/ns#"
   xmlns:rdf="http://www.w3.org/1999/02/22-rdf-syntax-ns#"
   xmlns:svg="http://www.w3.org/2000/svg"
   xmlns="http://www.w3.org/2000/svg"
   xmlns:sodipodi="http://sodipodi.sourceforge.net/DTD/sodipodi-0.dtd"
   xmlns:inkscape="http://www.inkscape.org/namespaces/inkscape"
   version="1.1"
   id="svg2"
   xml:space="preserve"
   width="64"
   height="64"
   viewBox="0 0 64 64"
   sodipodi:docname="badoo_icon-logo.svg"
   inkscape:version="0.92.2 5c3e80d, 2017-08-06"><metadata
     id="metadata8"><rdf:RDF><cc:Work
         rdf:about=""><dc:format>image/svg+xml</dc:format><dc:type
           rdf:resource="http://purl.org/dc/dcmitype/StillImage" /><dc:title></dc:title></cc:Work></rdf:RDF></metadata><defs
     id="defs6"><clipPath
       clipPathUnits="userSpaceOnUse"
       id="clipPath18"><path
         d="M 0,400.96 H 400.959 V 0 H 0 Z"
         id="path16"
         inkscape:connector-curvature="0" /></clipPath></defs><sodipodi:namedview
     pagecolor="#ffffff"
     bordercolor="#666666"
     borderopacity="1"
     objecttolerance="10"
     gridtolerance="10"
     guidetolerance="10"
     inkscape:pageopacity="0"
     inkscape:pageshadow="2"
     inkscape:window-width="1217"
     inkscape:window-height="673"
     id="namedview4"
     showgrid="false"
     inkscape:zoom="1.7469907"
     inkscape:cx="-41.88622"
     inkscape:cy="69.386352"
     inkscape:window-x="0"
     inkscape:window-y="0"
     inkscape:window-maximized="0"
     inkscape:current-layer="g10" /><g
     id="g10"
     inkscape:groupmode="layer"
     inkscape:label="Badoo_icon(1)"
     transform="matrix(1.3333333,0,0,-1.3333333,0,63.999988)"><g
       id="g12"
       transform="matrix(0.13701051,0,0,0.13843474,-3.293379,-3.7575717)"><g
         id="g14"
         clip-path="url(#clipPath18)"><g
           id="g20"
           transform="translate(147.3709,375.9218)"><path
             d="m 0,0 h 106.218 c 35.23,0 52.838,0 71.799,-5.995 20.702,-7.535 37.005,-23.842 44.543,-44.54 5.993,-18.961 5.993,-36.572 5.993,-71.8 v -106.218 c 0,-35.224 0,-52.835 -5.993,-71.796 -7.538,-20.701 -23.841,-37.007 -44.543,-44.54 -18.961,-5.995 -36.569,-5.995 -71.799,-5.995 H 0 c -35.225,0 -52.838,0 -71.796,5.995 -20.702,7.533 -37.008,23.839 -44.543,44.54 -5.995,18.961 -5.995,36.572 -5.995,71.796 v 106.218 c 0,35.228 0,52.839 5.995,71.8 7.535,20.698 23.841,37.005 44.543,44.54 C -52.838,0 -35.225,0 0,0"
             style="fill:#783bf9;fill-opacity:1;fill-rule:nonzero;stroke:none"
             id="path22"
             inkscape:connector-curvature="0" /></g><g
           id="g24"
           transform="translate(271.1336,224.0703)"><path
             d="m 0,0 c 0,-18.872 -7.349,-36.615 -20.694,-49.959 -13.345,-13.345 -31.088,-20.693 -49.96,-20.693 -18.872,0 -36.614,7.348 -49.959,20.693 -13.345,13.344 -20.695,31.087 -20.695,49.959 v 2.029 h 24.945 V 0 c 0,-25.204 20.505,-45.709 45.709,-45.709 25.205,0 45.71,20.505 45.71,45.709 V 2.029 H 0 Z m -11.353,69.395 c -43.049,0 -58.246,-34.038 -59.301,-36.531 -1.055,2.493 -16.251,36.531 -59.301,36.531 -35.489,0 -66.087,-29.838 -66.087,-66.645 0,-71.822 68.915,-130.046 125.388,-130.046 56.473,0 125.389,58.224 125.389,130.046 0,36.807 -30.599,66.645 -66.088,66.645"
             style="fill:#f99df0;fill-opacity:1;fill-rule:nonzero;stroke:none"
             id="path26"
             inkscape:connector-curvature="0" /></g></g></g></g></svg>